<svg width="38" height="24" viewBox="0 0 38 24" fill="none" xmlns="http://www.w3.org/2000/svg">
<g opacity="0.07">
<path d="M3 0.5H35C36.3348 0.5 37.5 1.58692 37.5 3V21C37.5 22.4239 36.4239 23.5 35 23.5H3C1.66524 23.5 0.5 22.4131 0.5 21V3C0.5 1.57614 1.57614 0.5 3 0.5Z" fill="black"/>
<path d="M3 0.5H35C36.3348 0.5 37.5 1.58692 37.5 3V21C37.5 22.4239 36.4239 23.5 35 23.5H3C1.66524 23.5 0.5 22.4131 0.5 21V3C0.5 1.57614 1.57614 0.5 3 0.5Z" stroke="black"/>
<path d="M3 0.5H35C36.3348 0.5 37.5 1.58692 37.5 3V21C37.5 22.4239 36.4239 23.5 35 23.5H3C1.66524 23.5 0.5 22.4131 0.5 21V3C0.5 1.57614 1.57614 0.5 3 0.5Z" stroke="black" stroke-opacity="0.2"/>
</g>
<path d="M35 1.5C35.8239 1.5 36.5 2.17614 36.5 3V21C36.5 21.8239 35.8239 22.5 35 22.5H3C2.17614 22.5 1.5 21.8239 1.5 21V3C1.5 2.17614 2.17614 1.5 3 1.5H35Z" fill="#006FCF"/>
<path d="M35 1.5C35.8239 1.5 36.5 2.17614 36.5 3V21C36.5 21.8239 35.8239 22.5 35 22.5H3C2.17614 22.5 1.5 21.8239 1.5 21V3C1.5 2.17614 2.17614 1.5 3 1.5H35Z" stroke="black"/>
<path d="M35 1.5C35.8239 1.5 36.5 2.17614 36.5 3V21C36.5 21.8239 35.8239 22.5 35 22.5H3C2.17614 22.5 1.5 21.8239 1.5 21V3C1.5 2.17614 2.17614 1.5 3 1.5H35Z" stroke="black" stroke-opacity="0.2"/>
<path d="M7.64179 14.7877L8.00781 13.906H9.93619L10.3022 14.7877L10.4302 15.096H10.764H13.484H13.984V14.596V13.0178L14.7781 14.805L14.91 15.102H15.235H16.425H16.7504L16.8822 14.8045L17.665 13.0368V14.603V15.103H18.165H19.623H20.1208L20.123 14.6052L20.147 9.08517L20.1495 8.5H24.5589L24.5583 8.584H20.652H20.152V9.084V14.602V15.102H20.652H24.552V15.18H10.3638L9.99779 14.2983L9.86981 13.99H9.536H8.406H8.07245L7.94435 14.298L7.57745 15.18H4.75778L7.61591 8.5H10.7104L10.9718 8.50587L10.9718 8.506H10.983H14.6572L15.4105 10.1494L15.8831 11.1804L16.3254 10.136L17.0182 8.5H19.5229L19.4389 8.584H17.407H17.076L16.9467 8.88874L15.8887 11.3828L14.7363 8.87521L14.6025 8.584H14.282H12.06H11.56V9.084V11.4565L10.4596 8.88716L10.3298 8.584H10H8.007H7.67838L7.54802 8.88565L5.16602 14.3977L4.86424 15.096H5.625H7.18H7.51381L7.64179 14.7877ZM24.8436 8.5H26.8353L27.7644 9.52568L28.1288 9.9279L28.4999 9.53187L29.4667 8.5H32.879L30.1248 11.5148L29.8174 11.8513L30.1242 12.1885L32.8461 15.18H29.3647L28.4356 14.1543L28.0728 13.7539L27.7017 14.1465L26.7246 15.18H24.709L24.7812 15.102H26.462H26.68L26.8284 14.9422L28.0683 13.6071L29.2506 14.9346L29.3998 15.102H29.624H31.499H32.6329L31.8682 14.2648L29.6639 11.8516L31.886 9.4214L32.6517 8.584H31.517H29.695H29.4768L29.3284 8.74397L28.1002 10.0681L26.9182 8.75016L26.7692 8.584H26.546H24.9182L24.8436 8.5ZM26.4543 11.821L25.5171 12.834H25.498V12.412V11.173V10.846H25.5425L25.5429 10.7942L26.4543 11.821ZM8.94797 11.644L8.9728 11.5833L8.99783 11.644H8.94797Z" fill="white"/>
<path d="M7.64179 14.7877L8.00781 13.906H9.93619L10.3022 14.7877L10.4302 15.096H10.764H13.484H13.984V14.596V13.0178L14.7781 14.805L14.91 15.102H15.235H16.425H16.7504L16.8822 14.8045L17.665 13.0368V14.603V15.103H18.165H19.623H20.1208L20.123 14.6052L20.147 9.08517L20.1495 8.5H24.5589L24.5583 8.584H20.652H20.152V9.084V14.602V15.102H20.652H24.552V15.18H10.3638L9.99779 14.2983L9.86981 13.99H9.536H8.406H8.07245L7.94435 14.298L7.57745 15.18H4.75778L7.61591 8.5H10.7104L10.9718 8.50587L10.9718 8.506H10.983H14.6572L15.4105 10.1494L15.8831 11.1804L16.3254 10.136L17.0182 8.5H19.5229L19.4389 8.584H17.407H17.076L16.9467 8.88874L15.8887 11.3828L14.7363 8.87521L14.6025 8.584H14.282H12.06H11.56V9.084V11.4565L10.4596 8.88716L10.3298 8.584H10H8.007H7.67838L7.54802 8.88565L5.16602 14.3977L4.86424 15.096H5.625H7.18H7.51381L7.64179 14.7877ZM24.8436 8.5H26.8353L27.7644 9.52568L28.1288 9.9279L28.4999 9.53187L29.4667 8.5H32.879L30.1248 11.5148L29.8174 11.8513L30.1242 12.1885L32.8461 15.18H29.3647L28.4356 14.1543L28.0728 13.7539L27.7017 14.1465L26.7246 15.18H24.709L24.7812 15.102H26.462H26.68L26.8284 14.9422L28.0683 13.6071L29.2506 14.9346L29.3998 15.102H29.624H31.499H32.6329L31.8682 14.2648L29.6639 11.8516L31.886 9.4214L32.6517 8.584H31.517H29.695H29.4768L29.3284 8.74397L28.1002 10.0681L26.9182 8.75016L26.7692 8.584H26.546H24.9182L24.8436 8.5ZM26.4543 11.821L25.5171 12.834H25.498V12.412V11.173V10.846H25.5425L25.5429 10.7942L26.4543 11.821ZM8.94797 11.644L8.9728 11.5833L8.99783 11.644H8.94797Z" stroke="black"/>
<path d="M7.64179 14.7877L8.00781 13.906H9.93619L10.3022 14.7877L10.4302 15.096H10.764H13.484H13.984V14.596V13.0178L14.7781 14.805L14.91 15.102H15.235H16.425H16.7504L16.8822 14.8045L17.665 13.0368V14.603V15.103H18.165H19.623H20.1208L20.123 14.6052L20.147 9.08517L20.1495 8.5H24.5589L24.5583 8.584H20.652H20.152V9.084V14.602V15.102H20.652H24.552V15.18H10.3638L9.99779 14.2983L9.86981 13.99H9.536H8.406H8.07245L7.94435 14.298L7.57745 15.18H4.75778L7.61591 8.5H10.7104L10.9718 8.50587L10.9718 8.506H10.983H14.6572L15.4105 10.1494L15.8831 11.1804L16.3254 10.136L17.0182 8.5H19.5229L19.4389 8.584H17.407H17.076L16.9467 8.88874L15.8887 11.3828L14.7363 8.87521L14.6025 8.584H14.282H12.06H11.56V9.084V11.4565L10.4596 8.88716L10.3298 8.584H10H8.007H7.67838L7.54802 8.88565L5.16602 14.3977L4.86424 15.096H5.625H7.18H7.51381L7.64179 14.7877ZM24.8436 8.5H26.8353L27.7644 9.52568L28.1288 9.9279L28.4999 9.53187L29.4667 8.5H32.879L30.1248 11.5148L29.8174 11.8513L30.1242 12.1885L32.8461 15.18H29.3647L28.4356 14.1543L28.0728 13.7539L27.7017 14.1465L26.7246 15.18H24.709L24.7812 15.102H26.462H26.68L26.8284 14.9422L28.0683 13.6071L29.2506 14.9346L29.3998 15.102H29.624H31.499H32.6329L31.8682 14.2648L29.6639 11.8516L31.886 9.4214L32.6517 8.584H31.517H29.695H29.4768L29.3284 8.74397L28.1002 10.0681L26.9182 8.75016L26.7692 8.584H26.546H24.9182L24.8436 8.5ZM26.4543 11.821L25.5171 12.834H25.498V12.412V11.173V10.846H25.5425L25.5429 10.7942L26.4543 11.821ZM8.94797 11.644L8.9728 11.5833L8.99783 11.644H8.94797Z" stroke="black" stroke-opacity="0.2"/>
</svg>
